<svg xmlns="http://www.w3.org/2000/svg" viewBox="-0.1 -0.1 109.2 104.2">
	<path d="M31.544 0L30.7147 2.82807L62.678 11.0166L63.7206 8.03959L31.544 0ZM68.8148 6.54091L66.7771 12.3483C70.2364 15.3795 73.7906 15.639 77.937 15.2982L79.3587 8.71218C76.3732 7.15257 72.7717 6.62442 68.8148 6.54091ZM99.1432 12.6959L92.1298 14.5218L91.0162 18.413L96.6554 23.6042L109 20.9634L99.1432 12.6959ZM82.9128 12.8268L82.2257 16.0137L86.8697 17.2167L87.7701 14.0411L82.9128 12.8268ZM41.5429 14.5105C39.8132 14.5512 38.1309 15.3253 36.6382 16.7563C34.9796 18.3904 33.7001 20.8731 33.3447 23.7621C32.9893 26.6512 33.6764 29.337 34.9322 31.2781C36.2117 33.174 37.9414 34.3251 39.9317 34.5282C41.922 34.7088 43.8886 33.9414 45.5709 32.2938C47.2295 30.6687 48.5326 28.1859 48.8881 25.2744C49.2198 22.4079 48.5326 19.722 47.2768 17.8036C45.9974 15.8738 44.2677 14.7317 42.3011 14.5376C42.0641 14.5128 41.8035 14.5038 41.5429 14.5105ZM68.3883 18.2098C67.2984 25.7935 65.5924 31.7746 63.1756 38.1395L56.6597 37.327C56.5649 40.7125 56.0911 44.0981 54.8827 47.5288C59.7636 47.416 64.4077 46.8968 68.9333 44.9783C71.6107 36.4467 73.293 27.9828 74.6909 19.4963C72.5822 19.406 70.4734 19.0675 68.3883 18.2098ZM27.1369 35.5665C25.0755 35.5665 23.4643 35.7245 20.8342 36.4919C14.5269 40.1483 10.0013 45.5652 8.27635 49.5601C6.28605 54.2774 5.51125 60.1682 5.6084 65.4723L11.6836 66.1945C12.4915 60.7776 12.8493 56.7827 14.2496 52.4717L25.4546 44.7978L24.7675 55.1576L26.5445 54.6385C30.8094 52.5846 33.7712 49.9664 36.3302 46.942C38.5574 44.3238 40.4293 41.4122 42.4196 38.4781C41.4481 38.6586 40.4766 38.7038 39.4578 38.6135C36.9699 38.3878 34.8138 37.2818 33.0841 35.6568C30.5014 35.6568 28.6533 35.5665 27.1369 35.5665ZM52.2763 36.6499L49.0302 36.695C45.9737 40.532 43.5095 44.9332 40.0501 49.1087C41.5666 49.6279 42.7513 51.0047 42.775 52.246C42.5617 54.5708 40.2634 55.6316 38.2731 55.6542C36.8278 55.5639 35.6667 55.2027 34.719 54.3902C31.852 56.6473 28.369 58.6334 23.9618 60.078C24.0092 60.6196 24.0803 61.1839 24.104 61.7256C24.8385 61.4999 25.5967 61.387 26.426 61.387C29.1509 61.4548 31.8994 63.0573 31.9468 65.4723C31.6387 68.271 28.7955 69.535 26.426 69.5575C25.5494 69.5575 24.7201 69.4221 23.9855 69.1513C23.7723 70.844 23.3932 72.5594 22.7771 74.2748L29.1746 74.839L30.5488 81.4747L36.4486 76.2835L39.4104 83.5738C40.6899 81.2716 42.0168 78.9694 43.4858 76.7124C40.8084 76.6672 37.894 75.2453 37.8229 72.9431C38.1309 70.1218 41.2112 69.1738 43.5095 69.1513C45.2392 69.2415 46.7793 69.5575 48.0114 70.5506C49.8595 68.3387 51.9446 66.2397 54.2666 64.2761C53.9586 63.5087 53.5558 62.6961 53.0582 61.8836C52.3474 62.0642 51.5418 62.1544 50.7125 62.1544C48.2957 61.9062 45.3339 61.3645 45.2865 58.8817C45.3813 57.4598 46.4476 56.5795 47.6323 56.1056C47.9403 55.9927 48.272 55.9024 48.6037 55.8347C47.964 55.0448 47.3953 54.3676 46.7556 53.5551L47.6323 52.3137C51.3048 47.0774 52.2289 42.0893 52.2763 36.6499ZM53.2715 70.9569C51.3759 72.9657 49.7173 75.0873 48.1535 77.3443C49.2198 78.202 50.3808 79.1048 51.5181 80.0302C53.7453 81.8358 56.0674 83.8672 56.6597 86.869L60.0717 104L66.6586 101.653C65.8056 95.1524 65.4028 90.6157 63.6495 83.3029V83.2352L63.6258 83.1675C63.2467 80.9105 61.1853 78.5631 58.4605 76.0352C56.7782 74.4553 54.8827 72.8077 53.2715 70.9569ZM23.7012 78.4954L18.9624 89.8032C13.0981 91.022 6.77651 90.0289 1.75099 89.0358L0 94.385C7.63661 95.7618 17.754 96.6872 23.1799 95.7167L27.6344 88.6973L25.5494 78.6534L23.7012 78.4954Z
" stroke="#FF0000" stroke-width="0.1" fill="#000000"/>
</svg>