<svg width="689" height="673" viewBox="0 0 689 673" fill="none" xmlns="http://www.w3.org/2000/svg">
<path d="M615.437 110.939C624.101 122.959 625.869 140.763 620.528 163.629C615.201 186.437 602.944 213.554 584.619 243.259C547.992 302.632 487.626 371.539 412.156 435.768C336.686 499.996 260.654 547.169 198.828 571.584C167.896 583.799 140.73 590.232 119.075 590.388C97.3642 590.544 81.8797 584.413 73.2152 572.393C64.5508 560.373 62.7826 542.569 68.1237 519.703C73.4512 496.895 85.7079 469.778 104.033 440.073C140.66 380.7 201.026 311.793 276.496 247.564C351.966 183.336 427.998 136.163 489.823 111.748C520.756 99.5331 547.922 93.0997 569.577 92.9438C591.288 92.7876 606.772 98.9186 615.437 110.939Z" stroke="#081826" stroke-width="8"/>
<path d="M615.437 110.939C624.101 122.959 625.869 140.763 620.528 163.629C615.201 186.437 602.944 213.554 584.619 243.259C547.992 302.632 487.626 371.539 412.156 435.768C336.686 499.996 260.654 547.169 198.828 571.584C167.896 583.799 140.73 590.232 119.075 590.388C97.3642 590.544 81.8797 584.413 73.2152 572.393C64.5508 560.373 62.7826 542.569 68.1237 519.703C73.4512 496.895 85.7079 469.778 104.033 440.073C140.66 380.7 201.026 311.793 276.496 247.564C351.966 183.336 427.998 136.163 489.823 111.748C520.756 99.5331 547.922 93.0997 569.577 92.9438C591.288 92.7876 606.772 98.9186 615.437 110.939Z" stroke="#081826" stroke-width="8"/>
<path d="M73.2152 110.939C64.5508 122.959 62.7825 140.763 68.1236 163.629C73.4511 186.437 85.7079 213.554 104.033 243.259C140.66 302.632 201.026 371.539 276.496 435.768C351.966 499.996 427.998 547.169 489.823 571.584C520.756 583.799 547.921 590.232 569.577 590.388C591.288 590.544 606.772 584.413 615.437 572.393C624.101 560.373 625.869 542.569 620.528 519.703C615.201 496.895 602.944 469.778 584.619 440.073C547.992 380.7 487.626 311.793 412.156 247.564C336.686 183.336 260.653 136.163 198.828 111.748C167.896 99.5331 140.73 93.0997 119.075 92.9438C97.3642 92.7876 81.8797 98.9186 73.2152 110.939Z" stroke="#081826" stroke-width="8"/>
<path d="M73.2152 110.939C64.5508 122.959 62.7825 140.763 68.1236 163.629C73.4511 186.437 85.7079 213.554 104.033 243.259C140.66 302.632 201.026 371.539 276.496 435.768C351.966 499.996 427.998 547.169 489.823 571.584C520.756 583.799 547.921 590.232 569.577 590.388C591.288 590.544 606.772 584.413 615.437 572.393C624.101 560.373 625.869 542.569 620.528 519.703C615.201 496.895 602.944 469.778 584.619 440.073C547.992 380.7 487.626 311.793 412.156 247.564C336.686 183.336 260.653 136.163 198.828 111.748C167.896 99.5331 140.73 93.0997 119.075 92.9438C97.3642 92.7876 81.8797 98.9186 73.2152 110.939Z" stroke="#081826" stroke-width="8"/>
<rect x="273.159" y="508.772" width="13" height="110.139" transform="rotate(33.5714 273.159 508.772)" fill="#804A28" stroke="#081826" stroke-width="4"/>
<line x1="178.482" y1="605" x2="226.482" y2="605" stroke="#081826" stroke-width="16"/>
<rect x="-0.57919" y="2.87366" width="16.5031" height="107.51" transform="matrix(-0.811763 0.583987 0.522168 0.852842 450.091 506.761)" fill="#804A28" stroke="#081826" stroke-width="4"/>
<line x1="488.482" y1="605" x2="532.482" y2="605" stroke="#081826" stroke-width="16"/>
<path d="M507.832 410.813L541.218 427.509L562.235 330.564L507.832 410.813Z" fill="#37474F" stroke="#081826" stroke-width="4"/>
<path d="M568.02 312C574.918 312 580.78 318.113 580.78 326C580.78 333.887 574.918 340 568.02 340C561.121 340 555.259 333.887 555.259 326C555.259 318.113 561.121 312 568.02 312Z" fill="#43D3E6" stroke="#081826" stroke-width="4"/>
<path d="M542.482 409H524.482V573H542.482C552.423 573 560.482 564.941 560.482 555V427C560.482 417.059 552.423 409 542.482 409Z" fill="#081826" stroke="#081826" stroke-width="4"/>
<line x1="522.482" y1="530" x2="559.482" y2="530" stroke="white" stroke-width="4"/>
<path d="M198.661 410.779L162.219 427.592L139.278 329.97L198.661 410.779Z" fill="#37474F" stroke="#081826" stroke-width="4"/>
<circle cx="135.482" cy="326" r="14" fill="#43D3E6" stroke="#081826" stroke-width="4"/>
<mask id="path-13-inside-1_3984_649" fill="white">
<path d="M347.072 63C440.4 63.0001 516.736 147.389 522.468 253.975H522.816V575H173.047V295.488C171.914 286.135 171.329 276.578 171.329 266.862C171.329 154.272 250.011 63 347.072 63Z"/>
</mask>
<path d="M347.072 63C440.4 63.0001 516.736 147.389 522.468 253.975H522.816V575H173.047V295.488C171.914 286.135 171.329 276.578 171.329 266.862C171.329 154.272 250.011 63 347.072 63Z" fill="#0B536F"/>
<path d="M347.072 63V59V63ZM522.468 253.975L518.474 254.189L518.678 257.975H522.468V253.975ZM522.816 253.975H526.816V249.975H522.816V253.975ZM522.816 575V579H526.816V575H522.816ZM173.047 575H169.047V579H173.047V575ZM173.047 295.488H177.047V295.247L177.018 295.007L173.047 295.488ZM171.329 266.862H167.329H171.329ZM347.072 63V67C437.768 67.0001 512.827 149.181 518.474 254.189L522.468 253.975L526.462 253.76C520.646 145.597 443.032 59.0001 347.072 59V63ZM522.468 253.975V257.975H522.816V253.975V249.975H522.468V253.975ZM522.816 253.975H518.816V575H522.816H526.816V253.975H522.816ZM522.816 575V571H173.047V575V579H522.816V575ZM173.047 575H177.047V295.488H173.047H169.047V575H173.047ZM173.047 295.488L177.018 295.007C175.905 285.814 175.329 276.417 175.329 266.862H171.329H167.329C167.329 276.739 167.924 286.457 169.076 295.969L173.047 295.488ZM171.329 266.862H175.329C175.329 155.904 252.757 67 347.072 67V63V59C247.266 59 167.329 152.641 167.329 266.862H171.329Z" fill="#081826" mask="url(#path-13-inside-1_3984_649)"/>
<path d="M491.482 237C491.482 313.768 426.787 376 346.982 376C267.177 376 202.482 313.768 202.482 237C202.482 160.232 267.177 98 346.982 98C426.787 98 491.482 160.232 491.482 237Z" fill="#FFFCEA"/>
<path d="M153.482 409H171.482V573H153.482C143.541 573 135.482 564.941 135.482 555V427C135.482 417.059 143.541 409 153.482 409Z" fill="#081826" stroke="#081826" stroke-width="4"/>
<circle cx="347" cy="80" r="77" fill="#FFFCEA" stroke="#0B536F" stroke-width="6"/>
<path d="M346 0V20" stroke="black" stroke-width="4"/>
<line x1="287" y1="82" x2="267" y2="82" stroke="black" stroke-width="4"/>
<line x1="424" y1="82" x2="404" y2="82" stroke="black" stroke-width="4"/>
<line x1="347" y1="143" x2="347" y2="160.018" stroke="black" stroke-width="4"/>
<path d="M414.305 117.403C405.006 134.138 389.805 146.808 371.669 152.941C353.533 159.075 333.763 158.232 316.215 150.578C298.666 142.924 284.599 129.007 276.757 111.541C268.914 94.0764 267.859 74.3161 273.798 56.1155C279.737 37.9148 292.243 22.5791 308.876 13.1002C325.51 3.62126 345.078 0.678887 363.764 4.84708C382.45 9.01527 398.913 19.995 409.941 35.6445C420.97 51.294 425.772 70.4907 423.413 89.4897" stroke="black" stroke-width="6"/>
<path d="M420.846 109.051C420.322 107.479 418.623 106.63 417.051 107.154L391.437 115.692C389.865 116.216 389.016 117.915 389.54 119.487C390.063 121.059 391.762 121.908 393.334 121.384L416.103 113.795L423.692 136.563C424.216 138.135 425.915 138.984 427.487 138.46C429.059 137.937 429.908 136.238 429.384 134.666L420.846 109.051ZM414 118L416.683 119.342L420.683 111.342L418 110L415.317 108.658L411.317 116.658L414 118Z" fill="black"/>
<line x1="376.955" y1="104.705" x2="345.955" y2="85.7052" stroke="black" stroke-width="4"/>
<line x1="347" y1="42" x2="347" y2="88" stroke="black" stroke-width="4"/>
<line x1="138.482" y1="530" x2="175.482" y2="530" stroke="white" stroke-width="4"/>
</svg>
