<svg xmlns="http://www.w3.org/2000/svg" viewBox="10.4751 0.759156 54.57 74.48">
	<path d="M14.3267 43.756H16.5012L18.404 42.3964L17.3183 41.0367L14.3267 43.756Z
                                M36.7716 33.4517H37.4507L38.4029 30.5958L34.5956 29.916L35.2762 30.5958V32.4995L36.7716 33.4517Z
                                M43.7654 37.9007V36.3633L42.0938 36.1429L40.9227 37.2791L43.7654 37.9007Z
                                M14.4128 39.7136L13.5195 39.3535L13.8641 41.0368L14.6945 40.6689L14.4128 39.7136Z
                                M51.1698 29.2764H53.6159V28.3933L52.3929 27.5101H51.1698V29.2764Z
                                M15.4008 36.8306L13.9837 34.8353L13.2627 35.3467L13.2511 36.8569L13.9596 37.8549L15.4008 36.8306Z
                                M10.6419 38.0699L10.4751 38.8025L11.4878 39.0323L11.5701 38.6691L11.1472 38.1864L10.6419 38.0699Z
                                M48.3402 34.9199V37.0944L50.3797 37.9093L51.1697 34.9199L49.7557 34.3751L48.3402 34.9199Z
                                M19.7272 10.0963L18.2815 11.6911L19.1871 13.4854L18.6943 13.4132C20.3582 15.8127 23.266 17.2283 26.3609 16.8255C30.7798 16.2528 33.8964 12.2072 33.3237 7.78836C32.7502 3.37029 28.7038 0.253666 24.2858 0.827169C23.1613 0.973067 22.1221 1.34635 21.2064 1.89114L22.601 1.94857L19.5092 4.25577L19.1002 3.70943C17.9082 5.15909 17.2175 7.01464 17.2602 8.99435L17.7848 9.9L19.7272 10.0963Z
                                M61.6294 50.1422L61.2398 51.7711L59.7785 48.1935C51.935 40.0202 50.0298 39.2348 49.3585 38.9608C48.3713 38.5557 46.4599 38.2771 43.6638 38.1235L41.4567 39.7679L40.1413 38.0024C38.427 37.9737 36.5016 37.9745 34.3558 38.0071L34.234 37.0704L32.7641 38.9973L30.98 38.385L27.1735 38.5208L29.2129 35.5982L33.1731 35.1225L26.1887 31.683L32.9954 29.9159L33.0521 27.9611C34.57 28.5377 36.1974 29.0553 37.6277 29.3044L37.9024 27.6701L39.2892 28.9024L41.196 28.4803L40.7854 29.4069C44.4818 29.1073 49.246 27.7515 50.327 27.4326C50.6933 27.3247 51.0239 27.1571 51.3134 26.9406C51.7557 26.6107 52.091 26.1676 52.3059 25.6709L51.5097 23.966L52.2353 23.0293C51.571 21.6991 50.0329 20.9906 48.5576 21.4259C45.7591 22.2501 40.981 23.3443 39.1247 23.1953C38.0141 23.1069 36.0469 22.4309 34.1385 21.6448C38.0568 20.3107 41.799 17.9104 45.8228 14.9094C46.2473 14.5936 46.6656 14.2661 47.0761 13.9277C48.4133 12.8288 48.6057 10.8561 47.5084 9.51973C47.4657 9.47084 47.416 9.43282 47.371 9.38548L46.8394 10.3121L45.9982 8.51319C45.0328 8.22062 43.944 8.40066 43.0996 9.0898C42.3523 9.70443 41.5723 10.2756 40.7738 10.8064L40.0932 11.2736L41.3838 13.1214L39.2574 12.7892L36.2432 16.3505L37.4274 12.7629C32.5631 15.2649 28.4082 18.9387 22.6933 17.5899C19.9119 17.8972 17.2664 21.3468 17.694 24.6365L18.3249 29.4907L18.463 29.5978L20.3333 29.0359L20.2914 31.191L22.7181 34.7554L18.7758 32.972L19.9864 42.294C20.2922 44.6516 21.9677 46.2674 24.0305 47.0582L25.6982 51.7812L26.9965 49.7635L27.4226 53.5972L26.3811 53.7113L28.2832 59.0994L28.3794 59.1731L30.249 58.6113L29.5241 60.6368L31.0498 61.9468L29.4341 62.3573L32.9768 72.3893C33.7621 74.6127 36.2021 75.7783 38.4255 74.993C38.8422 74.8463 39.2209 74.6406 39.5577 74.3908C41.0175 73.3027 41.6694 71.3517 41.0291 69.5451L38.7801 63.1776L36.6398 63.4158L38.077 61.1831L32.9147 46.5762C35.7644 46.5157 38.9834 46.5211 41.5832 46.5925L40.7769 44.6912L44.0813 46.695C44.9466 46.7462 45.6412 46.8091 46.0758 46.8843C47.6644 48.0376 52.5527 52.9213 56.3918 57.0436C57.8912 58.654 60.342 58.8456 62.0656 57.5613C62.1897 57.4681 62.3108 57.3673 62.428 57.2594C64.1539 55.6522 64.2494 52.95 62.643 51.2248C62.2953 50.8515 61.9585 50.493 61.6294 50.1422Z
                                M62.5359 3.26477H40.7156V4.0804H62.5359V3.26477Z
                                M65.0456 8.36108H55.5623V9.17672H65.0456V8.36108Z
                                M60.3039 13.9634H50.8213V14.779H60.3039V13.9634Z" fill="#000000"/>
</svg>